<svg xmlns="http://www.w3.org/2000/svg" width="58" height="58" viewBox="0 0 58 58">
  <g id="cart" transform="translate(-1148 -2816)">
    <circle id="Ellipse_5" data-name="Ellipse 5" cx="29" cy="29" r="29" transform="translate(1148 2816)" fill="#fff"/>
    <g id="cart-2" data-name="cart" transform="translate(1141.977 2803.458)">
      <path id="Path_1" data-name="Path 1" d="M42.654,48.305H27.774a.835.835,0,0,1-.541-.271.635.635,0,0,1-.068-.609l1.285-3.246L27.166,32.073H23.04V30.72h4.734a.719.719,0,0,1,.676.609L29.8,44.179a.61.61,0,0,1-.068.338l-.947,2.435H43.331Z" transform="translate(0 0)" fill="#0a302a"/>
      <path id="Path_2" data-name="Path 2" d="M54.572,57.578,54.3,56.225l15.691-3.246V47.433H53.76V46.08H70.669a.639.639,0,0,1,.676.676V53.52a.659.659,0,0,1-.541.676Z" transform="translate(-25.309 -12.655)" fill="#0a302a"/>
      <path id="Path_3" data-name="Path 3" d="M125.585,128.291a2.705,2.705,0,1,1,2.705-2.705A2.713,2.713,0,0,1,125.585,128.291Zm0-4.058a1.353,1.353,0,1,0,1.353,1.353A1.357,1.357,0,0,0,125.585,124.233Z" transform="translate(-82.255 -75.928)" fill="#0a302a"/>
      <path id="Path_4" data-name="Path 4" d="M33.425,128.291a2.705,2.705,0,1,1,2.705-2.705A2.713,2.713,0,0,1,33.425,128.291Zm0-4.058a1.353,1.353,0,1,0,1.353,1.353A1.357,1.357,0,0,0,33.425,124.233Z" transform="translate(-6.327 -75.928)" fill="#0a302a"/>
    </g>
  </g>
</svg>
