<svg xmlns="http://www.w3.org/2000/svg" width="12.7" height="12.67" viewBox="0 0 12.7 12.67">
  <g id="tag" transform="translate(0 -1.32)">
    <path id="Path_7" data-name="Path 7" d="M12.313,7.387a1.242,1.242,0,0,1,.387.907,1.147,1.147,0,0,1-.387.877L7.882,13.633a1.294,1.294,0,0,1-.907.357,1.193,1.193,0,0,1-.877-.357L.387,7.923A1.226,1.226,0,0,1,0,7.03V2.569a1.2,1.2,0,0,1,.372-.877,1.234,1.234,0,0,1,.907-.372H5.71a1.211,1.211,0,0,1,.892.357ZM2.216,4.473A.959.959,0,0,0,2.9,4.2a.884.884,0,0,0,.283-.669.965.965,0,0,0-.967-.967.884.884,0,0,0-.669.283.959.959,0,0,0-.268.684.915.915,0,0,0,.937.937Z" transform="translate(0 0)" fill="#08a16c"/>
  </g>
</svg>
